<?xml version="1.0" encoding="UTF-8"?>
<svg id="a" data-name="Camada 1" xmlns="http://www.w3.org/2000/svg" viewBox="0 0 328.33 174.73">
  <path d="M311.683,167.603c-3.381-52.032-1.037-108.394,7.718-158.035-102.511-.787-205.393,19.665-307.602,4.654,0,0,.915-.922.915-.922,2.146,12.678,3.387,25.489,4.041,38.315,1.912,38.486-1.399,77.023-5.537,115.242,0,0-.951-1.101-.951-1.101,84.816,1.851,169.323-8.665,253.86-14.112,13.023-.871,26.059-1.564,39.098-2.143,6.52-.282,13.046-.423,19.567-.641.126-.01.136.202.005.2-78.255,3.237-156.052,13.021-234.251,17.315-26.076,1.352-52.209,2.218-78.351,1.366-.546-.018-.975-.475-.957-1.022,4.184-38.188,7.323-76.597,5.682-115.017-.572-12.773-1.729-25.526-3.783-38.139-.071-.437.226-.85.663-.921,25.396,3.938,51.14,5.483,76.862,5.644,77.036.595,153.706-10.13,230.75-9.462.22.003.402.206.364.429-4.059,26.157-6.804,52.521-8.24,78.957-1.606,26.247-1.109,53.739.148,79.393h0Z" fill="#141414"/>
</svg>