<?xml version="1.0" encoding="UTF-8"?>
<svg id="a" data-name="Camada 1" xmlns="http://www.w3.org/2000/svg" viewBox="0 0 328.33 174.73">
  <path d="M259.414,31.62c-45.902-17.346-101.24-18.271-149.543-12.281C45.668,27.449-38.377,60.624,31.413,130.764c36.038,35.28,107.378,39.298,155.225,34.562,39.556-4.222,86.102-13.682,118.261-38.117,13.859-10.995,21.989-26.51,10.78-42.7-20.138-28.474-78.045-45.416-111.12-54.887-.128-.024-.069-.233.051-.193,33.235,8.912,99.84,27.397,115.462,59.856,7.167,15.244-2.101,29.847-14.005,39.352-31.791,24.768-79.812,34.522-119.244,38.64-48.293,4.59-120.117.218-156.394-35.535C-16.311,84.981,2.075,48.552,60.402,29.376c55.883-18.224,144.86-19.899,199.012,2.244h0Z" fill="#141414"/>
</svg>