<?xml version="1.0" encoding="UTF-8"?>
<svg id="a" data-name="Camada 1" xmlns="http://www.w3.org/2000/svg" viewBox="0 0 328.33 174.73">
  <path d="M22.527,9.589c16.337,12.97,17.621,28.032,3.864,43.532-3.697,4.234-7.901,7.99-12.283,11.488,0,0-.032-.319-.032-.319,4.668,2.401,9.301,5.039,13.167,8.678,10.144,9.238,3.435,19.324-3.605,27.817-3.345,4.065-6.876,7.961-10.313,11.931l-.205-.466c35.014.73,21.989,19.856,7.329,38.057-4.032,5.066-8.159,10.052-11.973,15.262,0,0-.391-.619-.391-.619,17.451-3.402,34.483-8.658,51.954-12.06.229-.044.451.087.529.299.867,2.377,1.828,4.724,3.035,6.931,8.264,15.936,20.584,5.612,30.962-1.757,4.127-2.983,8.286-5.978,12.768-8.496.257-.145.584-.054.734.198,15.306,26.212,45.283,19.849,56.479-6.143.158-.379.658-.491.969-.231,12.436,9.893,28.231,21.658,44.907,19.969,18.262-1.772,27.481-24.612,46.163-17.214,10.715,4.524,18.468,13.501,25.94,22.015,0,0-1.337.305-1.337.305,6.41-25.636,15.125-35.824,42.154-26.479,0,0-.899,1.365-.899,1.365-4.233-4.726-8.276-9.751-11.044-15.624-11.822-25.804,27.014-23.26-10.094-46.025-.581-.337-.588-1.204-.052-1.576,14.429-10.581,24.981-21.826,6.423-35.503-4.145-3.162-8.654-5.895-13.227-8.502-.477-.271-.643-.877-.372-1.354,2.808-3.903,11.014-14.166,13.568-18.222.978-1.515,1.975-3.037,2.501-4.714.141-.498.154-.973.044-1.14-.061-.17-.354-.367-.857-.479-.483-.113-1.061-.147-1.643-.146-3.682.102-7.349.946-10.991,1.654-4.968,1.018-9.929,2.173-14.908,3.217-5.493.307-10.962-.281-16.303-1.181-5.347-.871-10.609-2.144-15.859-2.684-4.975-.575-10.662-.009-13.41,4.652-2.693,4.418-3.118,9.969-3.35,15.097-.016.527-.456.94-.983.921-10.531-8.322-23.743-19.95-38.079-14.016-3.257,1.289-6.183,3.33-9.518,4.957-8.164,4.433-14.14-2.675-18.249-8.874-2.005-3.033-3.796-6.18-5.485-9.371,0,0,1.322-.094,1.322-.094-17.402,47.918-66.572-19.789-67.516,30.847-.028.541-.78.648-.952.138-2.244-7.189-6.495-14.3-13.659-17.37-19.447-8.568-50.314,10.738-68.157.732,20.323,9.284,47.752-9.982,68.486-1.477,7.428,3.091,11.94,10.435,14.258,17.818,0,0-.951.138-.951.138,1.148-52.2,51.063,15.113,67.127-31.319.193-.567,1.053-.65,1.322-.094,3.404,6.048,6.861,12.757,12.4,17.024,13.551,9.155,19.379-25.178,58.316,9.303,0,0-1.58.682-1.58.682.084-2.724.272-5.461.768-8.183,1.702-10.334,7.626-14.792,18.082-13.5,10.724,1.257,21.058,4.562,31.857,3.864,6.521-1.389,14.885-3.442,22.111-4.536,8.81-1.426,10.838,1.553,5.515,9.229-2.672,4.013-10.5,14.197-13.577,18.221,0,0-.299-1.464-.299-1.464,25.855,14.483,35.141,27.294,6.93,47.272,0,0-.052-1.576-.052-1.576,2.694,1.681,5.348,3.441,7.901,5.369,4.845,3.686,11.887,9.537,8.675,16.375-1.387,2.985-3.629,5.274-5.3,7.987-3.631,5.129-3.335,11.679-.602,17.179,2.611,5.591,6.555,10.555,10.716,15.219.311.348.282.882-.066,1.194-.234.209-.555.264-.833.171-4.595-1.545-9.298-2.869-14.074-3.257-17.564-1.962-22.37,14.796-26.041,28.523-.142.589-.956.783-1.337.304-7.243-8.307-14.986-17.273-25.291-21.639-17.611-7.1-26.631,15.325-45.466,17.193-17.164,1.717-33.152-10.193-45.866-20.352,0,0,.969-.232.969-.232-7.343,17.708-27.564,30.516-45.722,19.668-5.428-3.239-9.672-8.116-12.838-13.473,0,0,.734.198.734.198-8.953,4.902-16.426,12.066-25.586,16.722-4.63,2.41-10.734,3.152-14.829-.761-3.917-3.52-5.978-8.461-7.764-13.267,0,0,.53.304.53.304-17.454,3.347-34.51,8.557-51.983,11.909-.333.081-.607-.354-.391-.619,3.849-5.226,7.995-10.205,12.037-15.254,8.336-10.874,27.441-32.114,2.84-36.136-3.163-.578-6.391-.793-9.613-.902-.228.004-.362-.301-.205-.466,3.452-3.965,6.993-7.849,10.338-11.89,3.251-4.028,6.629-8.241,8.184-13.242,3.408-11.293-9.186-18.148-17.519-22.586-.121-.057-.14-.238-.032-.319,12.159-9.613,27.772-25.284,19.337-41.92-2.511-5.007-6.493-9.121-10.807-12.646-.103-.076.03-.24.126-.155h0Z" fill="#141414"/>
</svg>