<?xml version="1.0" encoding="UTF-8"?>
<svg id="a" data-name="Camada 1" xmlns="http://www.w3.org/2000/svg" viewBox="0 0 328.33 174.73">
  <path d="M323.027,152.715c-11.641,13.251-29.084,1.478-42.43-2.345-4.756-1.496-9.941-2.585-14.83-1.798-12.739,3.696-26.164,9.938-36.989-1.501-.676-.643-1.721-.838-2.632-1.222-1.86-.724-3.848-1.039-5.827-1.167-8.132-.419-15.504,3.853-22.329,7.808-6.92,3.931-14.047,9.24-22.478,8.488-11.221-3.091-20.358-11.195-31.768-13.613-6.474-1.57-14.354-.009-19.271,3.649-6.424,7.872-14.757,10.761-24.673,8.215-8.995-2.134-17.411-6.504-26.677-7.126-.288.005-.515.175-.714.363-1.169,1.046-2.406,2.024-3.674,2.948-16.44,12.152-42.483,12.628-56.317-3.784-1.532-1.698-2.82-3.664-3.937-5.656,0,0-.852-1.502-.852-1.502,0,0-.691-1.578-.691-1.578,0,0-.685-1.581-.685-1.581l-.171-.395-.043-.099c-.012-.032-.042-.09-.005-.013.122.253.483.322.69.132.142-.105.184-.348.136-.469,2.742,8.382,8.808,15.571,16.54,19.789,15.692,8.568,36.124,4.813,49.652-6.214.213-.173.481-.241.733-.211,4.934.594,9.6,2.221,14.116,3.899,4.523,1.683,8.983,3.405,13.602,4.397,9.298,2.295,18.84-1.613,25.014-8.707,3.797-2.398,8.549-3.648,13.103-3.058,12.888,1.434,23.217,11.993,35.044,15.205,8.695,1.297,17.117-3.046,24.503-7.238,5.794-3.231,11.925-6.87,18.783-7.309,2.379-.06,4.867.239,7.046,1.205,9.001,8.891,19.732,8.974,31.201,5.289,3.623-1.076,7.193-2.349,10.725-3.716,5.177-.546,10.368.406,15.327,1.82,11.618,3.065,25.617,10.018,36.673,2.147,1.773-1.313,3.331-2.963,4.527-4.807.097-.245-.258-.449-.422-.242h0ZM322.877,152.583c.134-.159.382-.202.562-.096.184.1.274.337.207.533-1.188,1.928-2.778,3.575-4.572,4.947-13.389,9.504-30.218-1.775-44.426-3.38-2.516-.344-5.055-.328-7.564-.092-3.093,1.269-7.102,2.764-10.632,3.854-11.813,3.976-22.923,3.908-32.378-5.152,0,0,.224.141.224.141-2.02-.67-4.135-1.01-6.27-.888-11.156,1.138-19.68,9.779-30.118,13.257-4.279,1.548-8.981,2.428-13.632,1.703-15.506-3.723-29.925-21.897-46.528-12.457-5.99,7.009-16.21,11.641-26.662,9.114-4.816-1.037-9.378-2.807-13.874-4.479-4.497-1.666-9.008-3.238-13.664-3.823,0,0,.733-.211.733-.211-14.157,11.44-35.421,15.2-51.716,6.198-8.07-4.445-14.392-12.011-17.221-20.783-.149-.386-.026-.95.333-1.238.347-.311.89-.369,1.294-.144.276.142.503.458.598.759,0,0,.163.38.163.38,0,0,.653,1.52.653,1.52,3.018,7.097,8.631,13.004,15.504,16.515,15.521,7.96,35.33,3.821,48.042-7.611.578-.434,1.45-.395,2.064-.299,4.567.427,8.98,1.703,13.26,3.128,8.263,2.664,17.149,6.816,25.827,3.977,4.231-1.368,7.703-4.406,10.625-7.766,7.812-5.768,18.337-5.488,26.95-1.784,8.461,3.43,16.428,9.232,24.952,11.688,8.132.777,15.216-4.437,22.016-8.233,8.486-4.985,18.765-10.286,28.696-6.509,0,0,1.43.54,1.43.54.475.155.974.443,1.366.804,10.568,11.399,24.002,5.123,36.559,1.533,5.085-.802,10.208.33,15.014,1.839,13.308,3.808,30.559,15.644,42.186,2.514h0Z" fill="#141414"/>
  <path d="M35.911,34.641c13.381,2.045,27.314-2.182,37.775-10.585,14.038,1.602,27.362,12.822,41.765,7.439,4.538-1.637,8.439-4.678,11.681-8.211,3.705-2.14,8.095-3.39,12.412-2.81,12.914,1.448,22.884,11.845,35.04,15.021,6.558.982,13.111-1.388,18.933-4.268,9.632-4.725,20.021-13.723,31.381-9.52,2.713,2.565,5.855,4.697,9.341,5.989,7.084,2.746,14.848,1.273,21.909-.937,3.608-1.105,7.162-2.406,10.677-3.801,10.391-1.225,20.244,3.533,30.076,5.911,9.443,2.383,19.993,2.393,25.873-6.61,0,0,.112-.161.112-.161-.042.071-.06.156-.05.236.016.17.176.327.349.334.148.064.437-.246.211-.013-1.653,1.844-3.626,3.406-5.854,4.505-15.88,7.374-34.936-11.221-51.688-8.515-7.34,1.986-15.517,5.619-23.726,5.065-4.194-.267-8.335-1.952-11.523-4.676-1.261-.858-1.901-2.1-3.322-2.637-5.888-2.596-12.491-1.935-18.364.572-7.45,3.027-13.958,7.875-21.247,11.407-3.764,1.741-8.021,3.064-12.378,2.524-11.217-3.164-20.274-11.225-31.645-13.672-6.497-1.444-13.623-.301-19.017,3.633-4.277,5.395-11.71,9.896-19.794,8.895-10.188-1.023-19.132-6.431-29.187-7.848-.844-.13-1.71-.234-2.554-.29-.181.015-.349.083-.488.209,0,0-.265.228-.265.228-.353.304-.703.609-1.068.899-19.702,16.373-52.983,14.364-63.903-11.007,0,0-.543-1.271-.543-1.271l-.271-.636c-.057-.169-.11-.145-.183-.128-.175-.025.138.567.252.965,0,0,.46,1.286.46,1.286,4.65,11.952,16.136,20.761,28.821,22.476h0ZM35.883,34.839c-13.241-1.688-25.312-11.124-29.703-23.799,0,0-.237-.649-.237-.649-.028-.108-.103-.192-.102-.42.008-.406.492-.69.851-.499.139.049.303.282.328.395,0,0,.273.626.273.626l.545,1.251c7.491,17.595,28.299,24.416,45.87,18.88,6.516-1.848,12.585-5.209,17.637-9.707.679-.698,1.498-.955,2.443-.792,7.158.553,13.965,3.283,20.707,5.449,6.666,2.184,14.19,3.87,20.681.524,3.237-1.542,5.871-4.14,8.277-6.849,7.936-5.877,18.629-5.626,27.384-1.878,8.577,3.449,16.145,9.083,24.992,11.615,7.125.753,15.019-4.482,21.481-8.258,6.548-3.802,13.698-7.784,21.503-7.897,2.617-.056,5.285.368,7.734,1.293,0,0,1.472.555,1.472.555.465.147,1.111.504,1.557.924,6.732,7.244,15.299,7.45,24.33,4.825,3.88-1.036,7.714-2.408,11.686-3.454,5.275-.818,10.52.369,15.373,1.902,11.009,3.036,24.703,12.146,35.921,6.95,2.053-1.003,3.891-2.449,5.42-4.146.061-.051.051-.09.301-.285.204-.14.454-.205.697-.185.76.03,1.271.99.839,1.636,0,0-.158.232-.158.232-6.383,9.568-17.348,9.669-27.404,7.109-9.736-2.389-19.292-7.051-29.464-6.02-2.804,1.135-7.136,2.72-10.614,3.753-7.244,2.25-15.337,3.716-22.664.838-3.289-1.178-7.725-4.129-9.495-6.126-12.925-4.399-24.74,8.429-36.576,12.078-4.218,1.498-8.803,2.304-13.308,1.608-12.442-3.301-22.006-13.678-34.975-15.27-4.088-.651-8.741.738-12.046,2.616-6.47,7.37-16.471,11.427-26.18,9.024-9.441-2.006-17.989-7.11-27.607-8.332-9.847,8.291-24.59,12.578-37.767,10.483h0Z" fill="#141414"/>
</svg>